<svg xmlns="http://www.w3.org/2000/svg" viewBox="0 0 400 600" width="400" height="600">
  <defs>
    <linearGradient id="g" x1="0%" y1="0%" x2="100%" y2="100%">
      <stop offset="0%" style="stop-color:#1a1a2e"/>
      <stop offset="100%" style="stop-color:#2d1b4e"/>
    </linearGradient>
  </defs>
  <rect width="400" height="600" fill="url(#g)"/>
  <rect x="30" y="30" width="340" height="540" fill="none" stroke="#a78bfa" stroke-width="1.5" opacity="0.3"/>
  <!-- Concentric arcs (quiet/calm motif) -->
  <path d="M 200 260 m -120 0 a 120 120 0 0 1 240 0" fill="none" stroke="#7c3aed" stroke-width="2" opacity="0.4"/>
  <path d="M 200 260 m -90 0 a 90 90 0 0 1 180 0" fill="none" stroke="#8b5cf6" stroke-width="2" opacity="0.5"/>
  <path d="M 200 260 m -60 0 a 60 60 0 0 1 120 0" fill="none" stroke="#a78bfa" stroke-width="2" opacity="0.6"/>
  <path d="M 200 260 m -30 0 a 30 30 0 0 1 60 0" fill="none" stroke="#c4b5fd" stroke-width="2" opacity="0.8"/>
  <circle cx="200" cy="260" r="10" fill="#ddd6fe"/>
  <!-- Horizon line -->
  <line x1="50" y1="260" x2="350" y2="260" stroke="#a78bfa" stroke-width="0.5" opacity="0.3"/>
  <text x="200" y="330" font-family="Georgia,serif" font-size="30" font-weight="bold" fill="#ede9fe" text-anchor="middle">THE QUIET</text>
  <text x="200" y="368" font-family="Georgia,serif" font-size="30" font-weight="bold" fill="#ede9fe" text-anchor="middle">EDGE</text>
  <line x1="80" y1="393" x2="320" y2="393" stroke="#a78bfa" stroke-width="1" opacity="0.4"/>
  <text x="200" y="420" font-family="Georgia,serif" font-size="14" fill="#c4b5fd" text-anchor="middle">ALEX MORGAN</text>
  <text x="200" y="550" font-family="Georgia,serif" font-size="11" fill="#7c3aed" text-anchor="middle" font-style="italic">psychology · identity · strength</text>
</svg>