<svg xmlns="http://www.w3.org/2000/svg" viewBox="0 0 400 600" width="400" height="600">
  <defs>
    <linearGradient id="g" x1="0%" y1="0%" x2="100%" y2="100%">
      <stop offset="0%" style="stop-color:#0f172a"/>
      <stop offset="100%" style="stop-color:#1e3a5f"/>
    </linearGradient>
  </defs>
  <rect width="400" height="600" fill="url(#g)"/>
  <rect x="30" y="30" width="340" height="540" fill="none" stroke="#38bdf8" stroke-width="1.5" opacity="0.3"/>
  <!-- Grid lines -->
  <line x1="60" y1="100" x2="340" y2="100" stroke="#38bdf8" stroke-width="0.5" opacity="0.2"/>
  <line x1="60" y1="150" x2="340" y2="150" stroke="#38bdf8" stroke-width="0.5" opacity="0.2"/>
  <line x1="60" y1="200" x2="340" y2="200" stroke="#38bdf8" stroke-width="0.5" opacity="0.2"/>
  <line x1="100" y1="80" x2="100" y2="240" stroke="#38bdf8" stroke-width="0.5" opacity="0.2"/>
  <line x1="160" y1="80" x2="160" y2="240" stroke="#38bdf8" stroke-width="0.5" opacity="0.2"/>
  <line x1="220" y1="80" x2="220" y2="240" stroke="#38bdf8" stroke-width="0.5" opacity="0.2"/>
  <line x1="280" y1="80" x2="280" y2="240" stroke="#38bdf8" stroke-width="0.5" opacity="0.2"/>
  <!-- Nodes -->
  <circle cx="100" cy="150" r="14" fill="#0ea5e9" opacity="0.9"/>
  <circle cx="200" cy="100" r="14" fill="#0ea5e9" opacity="0.9"/>
  <circle cx="300" cy="150" r="14" fill="#0ea5e9" opacity="0.9"/>
  <circle cx="160" cy="200" r="14" fill="#38bdf8" opacity="0.7"/>
  <circle cx="250" cy="200" r="14" fill="#38bdf8" opacity="0.7"/>
  <!-- Edges -->
  <line x1="100" y1="150" x2="200" y2="100" stroke="#38bdf8" stroke-width="1.5" opacity="0.6"/>
  <line x1="200" y1="100" x2="300" y2="150" stroke="#38bdf8" stroke-width="1.5" opacity="0.6"/>
  <line x1="100" y1="150" x2="160" y2="200" stroke="#38bdf8" stroke-width="1.5" opacity="0.6"/>
  <line x1="300" y1="150" x2="250" y2="200" stroke="#38bdf8" stroke-width="1.5" opacity="0.6"/>
  <text x="200" y="310" font-family="Georgia,serif" font-size="26" font-weight="bold" fill="#e0f2fe" text-anchor="middle">SYSTEMS OF</text>
  <text x="200" y="350" font-family="Georgia,serif" font-size="26" font-weight="bold" fill="#e0f2fe" text-anchor="middle">CLARITY</text>
  <line x1="80" y1="378" x2="320" y2="378" stroke="#38bdf8" stroke-width="1" opacity="0.4"/>
  <text x="200" y="408" font-family="Georgia,serif" font-size="14" fill="#7dd3fc" text-anchor="middle">ALEX MORGAN</text>
  <rect x="150" y="535" width="100" height="22" rx="11" fill="#0ea5e9" opacity="0.8"/>
  <text x="200" y="550" font-family="sans-serif" font-size="10" fill="#fff" text-anchor="middle">NEW RELEASE</text>
</svg>